<?xml version="1.0" encoding="UTF-8" standalone="no" ?>
<!DOCTYPE svg PUBLIC "-//W3C//DTD SVG 1.1//EN" "http://www.w3.org/Graphics/SVG/1.1/DTD/svg11.dtd">
<svg xmlns="http://www.w3.org/2000/svg" xmlns:xlink="http://www.w3.org/1999/xlink" version="1.1" width="1280" height="1024" viewBox="0 0 1280 1024" xml:space="preserve">
<desc>Created with Fabric.js 5.3.0</desc>
<defs>
</defs>
<g transform="matrix(1 0 0 1 640 512)" id="background-logo"  >
<rect style="stroke: none; stroke-width: 0; stroke-dasharray: none; stroke-linecap: butt; stroke-dashoffset: 0; stroke-linejoin: miter; stroke-miterlimit: 4; fill: rgb(15,79,168); fill-rule: nonzero; opacity: 1;"  paint-order="stroke"  x="-640" y="-512" rx="0" ry="0" width="1280" height="1024" />
</g>
<g transform="matrix(0.47828027124548395 0 0 0.4782802712454839 508.1416102045923 478.3045640529264)" id="logo-logo"  >
<g style=""  paint-order="stroke"   >
		<g transform="matrix(1.7850162882486593 0 0 1.7850162882486589 -62.056091260964706 58.16475575258261)"  >
<path style="stroke: none; stroke-width: 1; stroke-dasharray: none; stroke-linecap: butt; stroke-dashoffset: 0; stroke-linejoin: miter; stroke-miterlimit: 4; fill: rgb(255,255,255); fill-rule: nonzero; opacity: 1;"  paint-order="stroke"  transform=" translate(-127.73499999999999, -162.585)" d="M 146.39 176.5 L 134.1 176.19 C 129.96 176.17 127.14 173.99 123.78 171.6 L 116.45 165.5 L 109.08 158.15 L 118.56 148.67000000000002 L 146.39 176.5 Z" stroke-linecap="round" />
</g>
		<g transform="matrix(1.7850162882486593 0 0 1.7850162882486589 -37.372371691261094 82.46775251708806)"  >
<path style="stroke: none; stroke-width: 1; stroke-dasharray: none; stroke-linecap: butt; stroke-dashoffset: 0; stroke-linejoin: miter; stroke-miterlimit: 4; fill: rgb(255,255,255); fill-rule: nonzero; opacity: 1;"  paint-order="stroke"  transform=" translate(-141.56328814067663, -176.2)" d="M 143.94 174.06 L 162.2 174.12 L 165.92999999999998 180.41 C 168.60999999999999 183.10999999999999 163.49999999999997 186.89 159.68999999999997 186.89 L 137.82999999999998 186.89 L 116.44999999999999 165.51 L 123.14999999999999 170.31 C 126.50999999999999 172.7 130.53 174 134.67 174.02 L 143.94 174.06 L 143.94 174.06 Z" stroke-linecap="round" />
</g>
		<g transform="matrix(1.7850162882486593 0 0 1.7850162882486589 -7.407817596232064 37.155114039895835)"  >
<path style="stroke: none; stroke-width: 1; stroke-dasharray: none; stroke-linecap: butt; stroke-dashoffset: 0; stroke-linejoin: miter; stroke-miterlimit: 4; fill: rgb(255,255,255); fill-rule: nonzero; opacity: 1;"  paint-order="stroke"  transform=" translate(-158.34999999999997, -150.815)" d="M 166.6 164.67 L 188.01999999999998 186.07 L 188.83999999999997 186.89 L 159.68999999999997 186.89 C 163.49999999999997 186.89 165.39999999999998 182.27999999999997 162.71999999999997 179.57999999999998 L 157.25999999999996 174.11999999999998 L 137.82999999999996 154.70999999999998 C 132.05999999999995 148.92 128.72999999999996 141.62999999999997 127.85999999999996 134.10999999999999 L 133.24999999999994 123.63999999999999 L 147.23999999999995 114.73999999999998 C 138.80999999999995 123.16999999999999 138.80999999999995 136.88 147.23999999999995 145.30999999999997 L 161.51999999999995 158.11999999999998 L 166.61999999999995 164.67999999999998 L 166.59999999999994 164.67999999999998 Z" stroke-linecap="round" />
</g>
		<g transform="matrix(1.7850162882486593 0 0 1.7850162882486589 58.503908847349805 61.73478832907978)"  >
<path style="stroke: none; stroke-width: 1; stroke-dasharray: none; stroke-linecap: butt; stroke-dashoffset: 0; stroke-linejoin: miter; stroke-miterlimit: 4; fill: rgb(255,255,255); fill-rule: nonzero; opacity: 1;"  paint-order="stroke"  transform=" translate(-195.27500000000003, -164.58499999999998)" d="M 209.36 145.75 L 208.69000000000003 158.96 C 208.67000000000002 163.1 206.33 165.71 203.94000000000003 169.07 L 198.01000000000002 176.07 L 190.66000000000003 183.42 L 181.18000000000004 173.95999999999998 L 209.37000000000003 145.74999999999997 L 209.36000000000004 145.74999999999997 Z" stroke-linecap="round" />
</g>
		<g transform="matrix(1.7850162882486593 0 0 1.7850162882486589 82.44990235420556 36.81743443724588)"  >
<path style="stroke: none; stroke-width: 1; stroke-dasharray: none; stroke-linecap: butt; stroke-dashoffset: 0; stroke-linejoin: miter; stroke-miterlimit: 4; fill: rgb(255,255,255); fill-rule: nonzero; opacity: 1;"  paint-order="stroke"  transform=" translate(-208.69000000000003, -150.62582547824746)" d="M 219.36 132.84 L 219.38000000000002 132.84 L 219.38000000000002 154.7 L 198.00000000000003 176.07999999999998 L 202.80000000000004 169.38 C 205.19000000000003 166.01999999999998 206.49000000000004 162 206.51000000000005 157.85999999999999 L 206.55000000000004 148.57 L 206.61000000000004 130.31 L 213.40000000000003 125.85000000000001 C 216.10000000000002 123.17 219.36000000000004 129.04000000000002 219.36000000000004 132.85000000000002 L 219.36000000000004 132.85000000000002 Z" stroke-linecap="round" />
</g>
		<g transform="matrix(1.7850162882486593 0 0 1.7850162882486589 37.146188958454616 7.443517921996943)"  >
<path style="stroke: none; stroke-width: 1; stroke-dasharray: none; stroke-linecap: butt; stroke-dashoffset: 0; stroke-linejoin: miter; stroke-miterlimit: 4; fill: rgb(255,255,255); fill-rule: nonzero; opacity: 1;"  paint-order="stroke"  transform=" translate(-183.31, -134.17000000000002)" d="M 197.17 125.92 L 218.57 104.5 L 219.39 103.68 L 219.39 132.83 L 219.36999999999998 132.83 C 219.36999999999998 129.02 214.77999999999997 127.12000000000002 212.07999999999998 129.8 L 206.61999999999998 135.26000000000002 L 187.20999999999998 154.69000000000003 C 181.43999999999997 160.44000000000003 174.14999999999998 163.77000000000004 166.60999999999999 164.66000000000003 L 147.23 145.28000000000003 C 155.66 153.71000000000004 169.35 153.71000000000004 177.79999999999998 145.28000000000003 L 189.24999999999997 132.50000000000003 L 197.17999999999998 125.90000000000003 L 197.17999999999998 125.92000000000003 Z" stroke-linecap="round" />
</g>
		<g transform="matrix(1.7850162882486593 0 0 1.7850162882486589 62.08286650528839 -58.13798050825886)"  >
<path style="stroke: none; stroke-width: 1; stroke-dasharray: none; stroke-linecap: butt; stroke-dashoffset: 0; stroke-linejoin: miter; stroke-miterlimit: 4; fill: rgb(255,255,255); fill-rule: nonzero; opacity: 1;"  paint-order="stroke"  transform=" translate(-197.28000000000003, -97.43)" d="M 208.58 94.51 L 215.93 101.86 L 206.45000000000002 111.34 L 178.63000000000002 83.52000000000001 L 190.54000000000002 83.52000000000001 C 194.66000000000003 83.52000000000001 198.72000000000003 86.66000000000001 202.08 89.07000000000001 L 208.58 94.51 Z" stroke-linecap="round" />
</g>
		<g transform="matrix(1.7850162882486593 0 0 1.7850162882486589 37.79466961387766 -82.44990235420556)"  >
<path style="stroke: none; stroke-width: 1; stroke-dasharray: none; stroke-linecap: butt; stroke-dashoffset: 0; stroke-linejoin: miter; stroke-miterlimit: 4; fill: rgb(255,255,255); fill-rule: nonzero; opacity: 1;"  paint-order="stroke"  transform=" translate(-183.67329116977376, -83.81)" d="M 181.06 85.96 L 163.97 85.89999999999999 L 159.57 80.44 C 156.87 77.74 161.53 73.13 165.34 73.13 L 165.34 73.11 L 187.2 73.11 L 208.57999999999998 94.50999999999999 L 201.88 89.71 C 198.51999999999998 87.3 194.48 86 190.35999999999999 86 L 181.07 85.96 L 181.06 85.96 Z" stroke-linecap="round" />
</g>
		<g transform="matrix(1.7850162882486593 0 0 1.7850162882486589 7.461368084879325 -37.11048863268968)"  >
<path style="stroke: none; stroke-width: 1; stroke-dasharray: none; stroke-linecap: butt; stroke-dashoffset: 0; stroke-linejoin: miter; stroke-miterlimit: 4; fill: rgb(255,255,255); fill-rule: nonzero; opacity: 1;"  paint-order="stroke"  transform=" translate(-166.67999999999998, -109.20999999999998)" d="M 158.42 95.35 L 146.48999999999998 83.41999999999999 L 136.18999999999997 73.11999999999999 L 165.33999999999997 73.11999999999999 L 165.33999999999997 73.13999999999999 C 161.52999999999997 73.13999999999999 159.60999999999999 77.74999999999999 162.30999999999997 80.44999999999999 L 167.76999999999998 85.90999999999998 L 187.2 105.31999999999998 C 192.95 111.08999999999997 196.28 118.37999999999998 197.17 125.91999999999999 L 177.79 145.29999999999998 C 186.22 136.86999999999998 186.22 123.15999999999998 177.79 114.72999999999999 L 160.66 100.30999999999999 L 158.41 95.35 L 158.42 95.35 Z" stroke-linecap="round" />
</g>
		<g transform="matrix(1.7850162882486593 0 0 1.7850162882486589 -37.11048863268968 -7.42566775911439)"  >
<path style="stroke: none; stroke-width: 1; stroke-dasharray: none; stroke-linecap: butt; stroke-dashoffset: 0; stroke-linejoin: miter; stroke-miterlimit: 4; fill: rgb(255,255,255); fill-rule: nonzero; opacity: 1;"  paint-order="stroke"  transform=" translate(-141.70999999999998, -125.84000000000002)" d="M 127.85 134.1 L 115.91999999999999 146.03 L 105.61999999999999 156.33 L 105.61999999999999 127.18 L 105.63999999999999 127.18 C 105.63999999999999 130.99 110.24999999999999 129.75 112.94999999999999 127.07000000000001 L 118.40999999999998 124.75000000000001 L 137.82 105.32000000000002 C 143.59 99.55000000000003 150.88 96.22000000000003 158.42 95.35000000000002 L 177.79999999999998 114.73000000000002 C 169.35 106.30000000000001 155.65999999999997 106.30000000000001 147.23 114.73000000000002 L 127.85 134.11 L 127.85 134.11 Z" stroke-linecap="round" />
</g>
		<g transform="matrix(1.7850162882486593 0 0 1.7850162882486589 -82.46775251708812 -39.80281628022627)"  >
<path style="stroke: none; stroke-width: 1; stroke-dasharray: none; stroke-linecap: butt; stroke-dashoffset: 0; stroke-linejoin: miter; stroke-miterlimit: 4; fill: rgb(255,255,255); fill-rule: nonzero; opacity: 1;"  paint-order="stroke"  transform=" translate(-116.3, -107.70170695793584)" d="M 118.44 111.48 L 118.39999999999999 124.75 L 112.94 130.21 C 110.24 132.89000000000001 105.63 130.99 105.63 127.18 L 105.61 127.18 L 105.61 105.32000000000001 L 126.99 83.94000000000001 L 124.33999999999999 90.46000000000001 C 121.92999999999999 93.82000000000001 120.72999999999999 96.64000000000001 120.71 100.78 L 118.44 111.47 L 118.44 111.47 Z" stroke-linecap="round" />
</g>
		<g transform="matrix(1.7850162882486593 0 0 1.7850162882486589 -55.97811079947803 -64.20703588830429)"  >
<path style="stroke: none; stroke-width: 1; stroke-dasharray: none; stroke-linecap: butt; stroke-dashoffset: 0; stroke-linejoin: miter; stroke-miterlimit: 4; fill: rgb(255,255,255); fill-rule: nonzero; opacity: 1;"  paint-order="stroke"  transform=" translate(-131.14, -94.03)" d="M 143.84 86.06 L 118.44 111.48 L 118.48 102.17 C 118.5 98.03 119.8 94.01 122.21000000000001 90.65 L 126.99000000000001 83.95 L 134.36 76.58 L 143.84 86.06 Z" stroke-linecap="round" />
</g>
</g>
</g>
<g transform="matrix(1.9211538461538462 0 0 1.9211538461538462 714.9039377783921 480.1552018844226)" id="text-logo"  >
<g style=""  paint-order="stroke"   >
		<g transform="matrix(1 0 0 1 0 0)" id="text-logo-path-0"  >
<path style="stroke: none; stroke-width: 0; stroke-dasharray: none; stroke-linecap: butt; stroke-dashoffset: 0; stroke-linejoin: miter; stroke-miterlimit: 4; fill: rgb(255,255,255); fill-rule: nonzero; opacity: 1;"  paint-order="stroke"  transform=" translate(-71.22880252263758, 13.6)" d="M 2.36 0 L 4.84 0 C 6.56 0 7.44 -0.64 7.96 -2.28 L 9.16 -5.96 L 18.04 -5.96 L 19.24 -2.28 C 19.76 -0.64 20.64 0 22.36 0 L 24.84 0 C 26.56 0 27.04 -0.64 26.48 -2.28 L 18.8 -24.92 C 18.24 -26.56 17.36 -27.2 15.64 -27.2 L 11.56 -27.2 C 9.84 -27.2 8.96 -26.56 8.4 -24.92 L 0.72 -2.28 C 0.16 -0.64 0.64 0 2.36 0 Z M 11.08 -11.88 L 13.6 -19.72 L 16.12 -11.88 Z M 49.48 0 L 52.4 0 C 54.36 0 54.72 -0.6 53.6 -2.24 L 45.2 -14.28 L 52.76 -24.96 C 53.92 -26.56 53.56 -27.2 51.6 -27.2 L 49.24 -27.2 C 47.28 -27.2 46.08 -26.52 45 -24.88 L 38.64 -15.12 L 38.64 -24.44 C 38.64 -26.44 37.88 -27.2 35.88 -27.2 L 34.12 -27.2 C 32.12 -27.2 31.36 -26.44 31.36 -24.44 L 31.36 -2.76 C 31.36 -0.76 32.12 0 34.12 0 L 35.88 0 C 37.88 0 38.64 -0.76 38.64 -2.76 L 38.64 -10.32 L 38.96 -10.8 L 45.12 -2.24 C 46.28 -0.64 47.52 0 49.48 0 Z M 59.84 0 L 62.32 0 C 64.04 0 64.92 -0.64 65.44 -2.28 L 66.64 -5.96 L 75.52 -5.96 L 76.72 -2.28 C 77.24 -0.64 78.12 0 79.84 0 L 82.32 0 C 84.04 0 84.52 -0.64 83.96 -2.28 L 76.28 -24.92 C 75.72 -26.56 74.84 -27.2 73.12 -27.2 L 69.04 -27.2 C 67.32 -27.2 66.44 -26.56 65.88 -24.92 L 58.2 -2.28 C 57.64 -0.64 58.12 0 59.84 0 Z M 68.56 -11.88 L 71.08 -19.72 L 73.6 -11.88 Z M 106.72 0.32 C 108.2 0.32 109.4 0.16 110.36 -0.16 C 111.2 -0.44 111.44 -0.96 111.16 -1.88 L 109.96 -5.8 C 109.8 -6.32 109.6 -6.4 109.04 -6.28 C 108.72 -6.2 108.4 -6.16 108.04 -6.16 C 106.72 -6.16 105.4 -8.6 104.72 -11.12 C 107.68 -12.44 109.96 -14.08 109.96 -18.96 C 109.96 -25.28 105 -27.2 100.48 -27.2 L 93.72 -27.2 L 93.56 -27.2 L 93.36 -27.2 L 91.6 -27.2 C 89.6 -27.2 88.84 -26.44 88.84 -24.44 L 88.84 -2.76 C 88.84 -0.76 89.6 0 91.6 0 L 93.36 0 C 95.36 0 96.12 -0.76 96.12 -2.76 L 96.12 -8.96 L 98.28 -8.96 C 99.92 -3.56 102.16 0.32 106.72 0.32 Z M 96.12 -15.28 L 96.12 -20.88 L 100.04 -20.88 C 102.12 -20.88 102.84 -19.6 102.84 -18.08 C 102.84 -16.56 102.12 -15.28 100.04 -15.28 Z M 128.04 0.32 C 136.4 0.32 141.96 -5.24 141.96 -13.6 C 141.96 -21.96 136.4 -27.52 128.04 -27.52 C 119.68 -27.52 114.12 -21.96 114.12 -13.6 C 114.12 -5.24 119.68 0.32 128.04 0.32 Z M 128.04 -6.24 C 124.08 -6.24 121.48 -9.16 121.48 -13.64 C 121.48 -18.04 124.08 -20.96 128.04 -20.96 C 132 -20.96 134.6 -18.04 134.6 -13.64 C 134.6 -9.16 132 -6.24 128.04 -6.24 Z" stroke-linecap="round" />
</g>
</g>
</g>
<g transform="matrix(1 0 0 1 325 407.17947815222834)" id="tagline-3891d61e-d8e2-4f26-941c-8b329d7e4c5b-logo"  >
<g style=""  paint-order="stroke"   >
		<g transform="matrix(1 0 0 1 0 0)" id="tagline-3891d61e-d8e2-4f26-941c-8b329d7e4c5b-logo-path-0"  >
<path style="stroke: none; stroke-width: 0; stroke-dasharray: none; stroke-linecap: butt; stroke-dashoffset: 0; stroke-linejoin: miter; stroke-miterlimit: 4; fill: rgb(28,89,110); fill-opacity: 0.7; fill-rule: nonzero; opacity: 1;"  paint-order="stroke"  transform=" translate(0, 0)" d="" stroke-linecap="round" />
</g>
</g>
</g>
</svg>